<svg id="logo" xmlns="http://www.w3.org/2000/svg" width="169.063" height="55" viewBox="0 0 169.063 55">
  <metadata><?xpacket begin="﻿" id="W5M0MpCehiHzreSzNTczkc9d"?>
<x:xmpmeta xmlns:x="adobe:ns:meta/" x:xmptk="Adobe XMP Core 5.6-c142 79.160924, 2017/07/13-01:06:39        ">
   <rdf:RDF xmlns:rdf="http://www.w3.org/1999/02/22-rdf-syntax-ns#">
      <rdf:Description rdf:about=""/>
   </rdf:RDF>
</x:xmpmeta>
                                                                                                    
                                                                                                    
                                                                                                    
                                                                                                    
                                                                                                    
                                                                                                    
                                                                                                    
                                                                                                    
                                                                                                    
                                                                                                    
                                                                                                    
                                                                                                    
                                                                                                    
                                                                                                    
                                                                                                    
                                                                                                    
                                                                                                    
                                                                                                    
                                                                                                    
                                                                                                    
                           
<?xpacket end="w"?></metadata>
<defs>
    <style>
      .cls-1 {
        fill: #fff;
        fill-rule: evenodd;
      }
    </style>
  </defs>
  <path class="cls-1" d="M406.28,113.091c0.7-.038,1.372-0.059,2-0.059s1.3,0.021,2,.059l-2-11.859ZM417.9,96.337a2.483,2.483,0,0,1-3.378-.541l3.052,18.083c4.8,0.7,8.985,1.576,8.985,1.576a139.4,139.4,0,0,0-4.949-22.365A18.166,18.166,0,0,1,417.9,96.337Zm-18.919,17.542L402.036,95.8a2.492,2.492,0,0,1-1.977.976,2.467,2.467,0,0,1-1.4-.435,18.162,18.162,0,0,1-3.709-3.248A139.334,139.334,0,0,0,390,115.453S394.186,114.577,398.985,113.878ZM418.109,89.4a2.5,2.5,0,0,0,.575-1.443,1.977,1.977,0,0,0-.455-1.153,6.658,6.658,0,0,0-1.522-1.427c-0.072-.052-0.148-0.1-0.225-0.156l-1.649,7.118a2.585,2.585,0,0,1,.265-0.208A11.59,11.59,0,0,0,418.109,89.4ZM398.368,86.76a2.026,2.026,0,0,0-.49,1.206,2.511,2.511,0,0,0,.576,1.439,11.567,11.567,0,0,0,3.01,2.727,2.7,2.7,0,0,1,.266.21l-1.649-7.118A7.3,7.3,0,0,0,398.368,86.76Zm4.924-14.745a5.121,5.121,0,0,1,6.151-3.876,5.19,5.19,0,0,1,3.828,6.229,5.122,5.122,0,0,1-6.151,3.876A5.191,5.191,0,0,1,403.292,72.015Zm-4.378,23.94a2.032,2.032,0,0,0,2.846-.558,2.092,2.092,0,0,0-.551-2.882,12.24,12.24,0,0,1-3.127-2.844,2.983,2.983,0,0,1-.66-1.705,2.469,2.469,0,0,1,.58-1.48,8.6,8.6,0,0,1,2.376-2L402.722,94.6a3.264,3.264,0,0,0-.08.347l-4.12,24.413a3.076,3.076,0,1,0,6.061,1.049l3.538-20.964h0.321l3.537,20.965a3.076,3.076,0,1,0,6.062-1.049l-4.12-24.413a3.242,3.242,0,0,0-.08-0.346l2.344-10.113c0.26,0.157.525,0.328,0.784,0.513a7.177,7.177,0,0,1,1.629,1.534,2.42,2.42,0,0,1,.542,1.43,2.972,2.972,0,0,1-.659,1.7,12.245,12.245,0,0,1-3.127,2.844A2.091,2.091,0,0,0,414.8,95.4a2.032,2.032,0,0,0,2.846.558,16.18,16.18,0,0,0,4.17-3.874,7.139,7.139,0,0,0,1.421-4.116,6.638,6.638,0,0,0-1.415-3.991,12.985,12.985,0,0,0-4-3.319,17.674,17.674,0,0,0-2.311-1.1,2.011,2.011,0,0,0-.866-0.119A2.071,2.071,0,0,0,414.3,79.4H402.262a2.083,2.083,0,0,0-.348.033,2.019,2.019,0,0,0-.866.119,18.139,18.139,0,0,0-3.641,1.933,11.507,11.507,0,0,0-2.669,2.488,6.625,6.625,0,0,0-1.415,3.991,7.132,7.132,0,0,0,1.421,4.116A16.182,16.182,0,0,0,398.914,95.955Zm45.319-12.117h7.042V82.821h-7.042V76.187h7.458V75.182h-8.546V90.824h1.088V83.837Zm14.841,0.171,4.023,6.815h1.3L460.163,83.7a4.594,4.594,0,0,0,2.512-1.551,4.239,4.239,0,0,0,.827-2.653,3.84,3.84,0,0,0-1.387-3.237,6.98,6.98,0,0,0-4.289-1.075h-3.713V90.824H455.2V84.008h3.873ZM455.2,76.166h2.582a5.815,5.815,0,0,1,3.479.813,3.061,3.061,0,0,1,1.067,2.6,3.156,3.156,0,0,1-1.089,2.605,4.74,4.74,0,0,1-3.062.883H455.2v-6.9Zm23.164,0.925a6.37,6.37,0,0,0-5.111-2.156,6.439,6.439,0,0,0-5.116,2.145,8.638,8.638,0,0,0-1.872,5.879,8.785,8.785,0,0,0,1.856,5.911,7.124,7.124,0,0,0,10.232,0,8.752,8.752,0,0,0,1.857-5.89A8.764,8.764,0,0,0,478.365,77.091Zm-9.405.722a5.985,5.985,0,0,1,8.578-.016,7.951,7.951,0,0,1,1.488,5.184,8.038,8.038,0,0,1-1.488,5.21,5.967,5.967,0,0,1-8.594-.016,8.027,8.027,0,0,1-1.494-5.194A7.88,7.88,0,0,1,468.96,77.814Zm22.39,13.01L497.186,76.4h0.085q-0.128,1.327-.128,2.568V90.824h1.1V75.182H496.6l-5.527,13.759h-0.064l-5.527-13.759H483.8V90.824h1.045V79.1q0-1.391-.085-2.718h0.085l5.815,14.444h0.694ZM517.831,89.8h-9.4l9.155-13.8V75.182H507.407v1.027h8.717l-9.133,13.8v0.813h10.84V89.8Zm11.609,0.021H522V83.11h7.021V82.1H522V76.187h7.437V75.182h-8.525V90.824h8.525V89.818Zm8.493-5.81,4.022,6.815h1.3L539.021,83.7a4.6,4.6,0,0,0,2.513-1.551,4.239,4.239,0,0,0,.827-2.653,3.84,3.84,0,0,0-1.388-3.237,6.978,6.978,0,0,0-4.289-1.075h-3.713V90.824h1.089V84.008h3.873Zm-3.873-7.843h2.582a5.812,5.812,0,0,1,3.478.813,3.061,3.061,0,0,1,1.067,2.6,3.158,3.158,0,0,1-1.088,2.605,4.745,4.745,0,0,1-3.063.883H534.06v-6.9Zm23.163,0.925a6.37,6.37,0,0,0-5.111-2.156A6.441,6.441,0,0,0,547,77.081a8.638,8.638,0,0,0-1.872,5.879,8.79,8.79,0,0,0,1.856,5.911,7.124,7.124,0,0,0,10.232,0,8.752,8.752,0,0,0,1.857-5.89A8.759,8.759,0,0,0,557.223,77.091Zm-9.4.722A5.985,5.985,0,0,1,556.4,77.8a7.946,7.946,0,0,1,1.489,5.184,8.032,8.032,0,0,1-1.489,5.21,5.967,5.967,0,0,1-8.594-.016,8.027,8.027,0,0,1-1.494-5.194A7.88,7.88,0,0,1,547.818,77.814ZM450.809,99.352h5.24V95.937H441.477v3.415h5.241v15.937h4.091V99.352Zm23.37-1.151q-2.356-2.568-6.8-2.568a8.9,8.9,0,0,0-6.831,2.548q-2.384,2.548-2.383,7.379t2.376,7.412a10.277,10.277,0,0,0,13.622,0q2.376-2.58,2.376-7.386T474.179,98.2Zm-10.487,2.5a4.319,4.319,0,0,1,3.683-1.648q4.87,0,4.87,6.538t-4.9,6.526a4.289,4.289,0,0,1-3.669-1.641,8.1,8.1,0,0,1-1.228-4.885A8.065,8.065,0,0,1,463.692,100.7Zm39.677-4.759h-4.078v7.585h-7.643V95.937h-4.092v19.352h4.092v-8.352h7.643v8.352h4.078V95.937ZM519.354,111.9h-7.022v-4.99h6.533v-3.362h-6.533V99.3h7.022V95.937H508.24v19.352h11.114V111.9Zm8.117-12.6h1.241a5.715,5.715,0,0,1,2.924.582,2.12,2.12,0,0,1,.944,1.959,2.319,2.319,0,0,1-.924,2.038,5.043,5.043,0,0,1-2.865.649h-1.32V99.3Zm2.178,8.564,4.607,7.426h4.54q-1.32-1.907-5.675-8.432a6.2,6.2,0,0,0,2.653-2.085,5.737,5.737,0,0,0-.951-7.4q-1.887-1.436-5.82-1.436H523.38v19.352h4.091v-7.426h2.178ZM556.385,98.2q-2.357-2.568-6.8-2.568a8.9,8.9,0,0,0-6.83,2.548q-2.384,2.548-2.383,7.379t2.376,7.412a10.277,10.277,0,0,0,13.622,0q2.376-2.58,2.376-7.386T556.385,98.2ZM545.9,100.7a4.317,4.317,0,0,1,3.682-1.648q4.87,0,4.871,6.538t-4.9,6.526a4.289,4.289,0,0,1-3.669-1.641,8.1,8.1,0,0,1-1.228-4.885A8.065,8.065,0,0,1,545.9,100.7Z" transform="translate(-390 -68)"/>
</svg>
