<svg id="logo" xmlns="http://www.w3.org/2000/svg" width="135" height="43.969" viewBox="0 0 135 43.969">
  <metadata><?xpacket begin="﻿" id="W5M0MpCehiHzreSzNTczkc9d"?>
<x:xmpmeta xmlns:x="adobe:ns:meta/" x:xmptk="Adobe XMP Core 5.6-c142 79.160924, 2017/07/13-01:06:39        ">
   <rdf:RDF xmlns:rdf="http://www.w3.org/1999/02/22-rdf-syntax-ns#">
      <rdf:Description rdf:about=""/>
   </rdf:RDF>
</x:xmpmeta>
                                                                                                    
                                                                                                    
                                                                                                    
                                                                                                    
                                                                                                    
                                                                                                    
                                                                                                    
                                                                                                    
                                                                                                    
                                                                                                    
                                                                                                    
                                                                                                    
                                                                                                    
                                                                                                    
                                                                                                    
                                                                                                    
                                                                                                    
                                                                                                    
                                                                                                    
                                                                                                    
                           
<?xpacket end="w"?></metadata>
<defs>
    <style>
      .cls-1 {
        fill: #fff;
        fill-rule: evenodd;
      }
    </style>
  </defs>
  <path id="logo-2" data-name="logo" class="cls-1" d="M420,110.073c0.559-.031,1.1-0.048,1.6-0.048s1.039,0.017,1.6.048l-1.6-9.487Zm9.282-13.4a1.97,1.97,0,0,1-1.119.348,1.991,1.991,0,0,1-1.579-.781l2.438,14.467c3.831,0.558,7.175,1.26,7.175,1.26a111.727,111.727,0,0,0-3.953-17.892A14.524,14.524,0,0,1,429.282,96.669ZM414.175,110.7l2.436-14.466a1.981,1.981,0,0,1-2.7.432,14.536,14.536,0,0,1-2.962-2.6A111.665,111.665,0,0,0,407,111.963S410.343,111.261,414.175,110.7Zm15.271-19.58a2,2,0,0,0,.459-1.155,1.589,1.589,0,0,0-.363-0.922,5.33,5.33,0,0,0-1.216-1.142c-0.058-.042-0.118-0.083-0.179-0.125l-1.318,5.694a2.073,2.073,0,0,1,.213-0.167A9.258,9.258,0,0,0,429.446,91.123Zm-15.764-2.115a1.623,1.623,0,0,0-.391.965,2.006,2.006,0,0,0,.46,1.151,9.237,9.237,0,0,0,2.4,2.181,2.019,2.019,0,0,1,.213.168l-1.317-5.695A5.831,5.831,0,0,0,413.682,89.008Zm3.932-11.8a4.089,4.089,0,0,1,4.912-3.1,4.152,4.152,0,0,1,3.056,4.984,4.089,4.089,0,0,1-4.912,3.1A4.153,4.153,0,0,1,417.614,77.212Zm-3.5,19.152a1.612,1.612,0,0,0,.915.285,1.631,1.631,0,0,0,1.358-.731,1.676,1.676,0,0,0-.44-2.305,9.782,9.782,0,0,1-2.5-2.275,2.386,2.386,0,0,1-.526-1.364,1.974,1.974,0,0,1,.463-1.184,6.874,6.874,0,0,1,1.9-1.6l1.872,8.091a2.512,2.512,0,0,0-.064.277l-3.29,19.53a2.488,2.488,0,0,0,2.007,2.875,2.444,2.444,0,0,0,2.833-2.036l2.825-16.772h0.256l2.825,16.772a2.456,2.456,0,1,0,4.84-.839L426.1,95.559a2.737,2.737,0,0,0-.064-0.277l1.871-8.09c0.208,0.125.419,0.262,0.626,0.41a5.716,5.716,0,0,1,1.3,1.227,1.937,1.937,0,0,1,.433,1.144,2.378,2.378,0,0,1-.526,1.364,9.771,9.771,0,0,1-2.5,2.276,1.675,1.675,0,0,0-.439,2.305,1.627,1.627,0,0,0,1.357.731,1.61,1.61,0,0,0,.915-0.285,12.933,12.933,0,0,0,3.33-3.1,5.722,5.722,0,0,0,1.135-3.293,5.314,5.314,0,0,0-1.13-3.193,10.372,10.372,0,0,0-3.194-2.655,14.128,14.128,0,0,0-1.845-.882,1.607,1.607,0,0,0-.692-0.1,1.666,1.666,0,0,0-.277-0.026h-9.613a1.658,1.658,0,0,0-.278.026,1.612,1.612,0,0,0-.692.1,14.5,14.5,0,0,0-2.907,1.546,9.208,9.208,0,0,0-2.132,1.99,5.314,5.314,0,0,0-1.13,3.193,5.722,5.722,0,0,0,1.135,3.293A12.949,12.949,0,0,0,414.118,96.364Zm36.188-9.694h5.623V85.857h-5.623V80.55h5.956v-0.8h-6.825V92.259h0.869V86.67Zm11.851,0.137,3.212,5.452h1.04l-3.383-5.7a3.666,3.666,0,0,0,2.007-1.241,3.4,3.4,0,0,0,.66-2.123,3.073,3.073,0,0,0-1.108-2.589,5.564,5.564,0,0,0-3.424-.86H458.2V92.259h0.869V86.807h3.092Zm-3.092-6.274h2.061a4.636,4.636,0,0,1,2.778.65,2.45,2.45,0,0,1,.852,2.08,2.528,2.528,0,0,1-.869,2.084,3.781,3.781,0,0,1-2.445.706h-2.377V80.533Zm18.5,0.74a5.082,5.082,0,0,0-4.081-1.725,5.137,5.137,0,0,0-4.085,1.716,6.917,6.917,0,0,0-1.5,4.7,7.04,7.04,0,0,0,1.482,4.729,5.682,5.682,0,0,0,8.171,0A8.25,8.25,0,0,0,477.561,81.273Zm-7.51.578a4.773,4.773,0,0,1,6.85-.013,6.37,6.37,0,0,1,1.188,4.147,6.439,6.439,0,0,1-1.188,4.168,4.759,4.759,0,0,1-6.863-.013,6.432,6.432,0,0,1-1.193-4.156A6.313,6.313,0,0,1,470.051,81.851ZM487.93,92.259l4.66-11.538h0.068q-0.1,1.061-.1,2.054v9.484h0.878V79.745h-1.312l-4.414,11.007h-0.051l-4.413-11.007H481.9V92.259h0.835V82.878q0-1.113-.068-2.174h0.068l4.643,11.555h0.554Zm21.146-.822H501.57L508.88,80.4V79.745h-8.128v0.822h6.961L500.42,91.609v0.65h8.656V91.437Zm9.27,0.017h-5.939V86.088h5.606v-0.8h-5.606V80.55h5.939v-0.8h-6.808V92.259h6.808v-0.8Zm6.781-4.648,3.212,5.452h1.04L526,86.559A3.666,3.666,0,0,0,528,85.317a3.4,3.4,0,0,0,.66-2.123,3.076,3.076,0,0,0-1.107-2.589,5.569,5.569,0,0,0-3.425-.86h-2.965V92.259h0.869V86.807h3.092Zm-3.092-6.274H524.1a4.636,4.636,0,0,1,2.778.65,2.45,2.45,0,0,1,.852,2.08,2.528,2.528,0,0,1-.869,2.084,3.781,3.781,0,0,1-2.445.706h-2.377V80.533Zm18.5,0.74a5.081,5.081,0,0,0-4.081-1.725,5.138,5.138,0,0,0-4.085,1.716,6.917,6.917,0,0,0-1.5,4.7,7.04,7.04,0,0,0,1.482,4.729,5.682,5.682,0,0,0,8.171,0A8.25,8.25,0,0,0,540.531,81.273Zm-7.51.578a4.773,4.773,0,0,1,6.85-.013,6.37,6.37,0,0,1,1.188,4.147,6.439,6.439,0,0,1-1.188,4.168,4.759,4.759,0,0,1-6.863-.013,6.432,6.432,0,0,1-1.193-4.156A6.313,6.313,0,0,1,533.021,81.851ZM455.558,99.082h4.184V96.35H448.106v2.732h4.184v12.749h3.268V99.082Zm18.661-.921a7,7,0,0,0-5.434-2.054,7.1,7.1,0,0,0-5.454,2.038,8.34,8.34,0,0,0-1.9,5.9,8.459,8.459,0,0,0,1.9,5.93,8.194,8.194,0,0,0,10.877,0,8.425,8.425,0,0,0,1.9-5.909A8.449,8.449,0,0,0,474.219,98.161Zm-8.374,2a3.444,3.444,0,0,1,2.94-1.319q3.889,0,3.889,5.231t-3.91,5.221a3.423,3.423,0,0,1-2.93-1.314A8.247,8.247,0,0,1,465.845,100.157Zm31.683-3.807h-3.257v6.067h-6.1V96.35H484.9v15.481h3.267v-6.682h6.1v6.682h3.257V96.35Zm12.764,12.77h-5.608v-3.992H509.9v-2.69h-5.218v-3.4h5.608V96.35h-8.875v15.481h8.875V109.12Zm6.482-10.081h0.991a4.552,4.552,0,0,1,2.334.466,1.7,1.7,0,0,1,.754,1.568,1.854,1.854,0,0,1-.738,1.63,4.016,4.016,0,0,1-2.287.519h-1.054V99.039Zm1.739,6.851,3.678,5.941h3.626q-1.054-1.526-4.532-6.745a4.969,4.969,0,0,0,2.119-1.668,4.6,4.6,0,0,0-.759-5.919A7.661,7.661,0,0,0,518,96.35h-4.49v15.481h3.268V105.89h1.739Zm21.349-7.729a7,7,0,0,0-5.434-2.054,7.1,7.1,0,0,0-5.454,2.038,8.34,8.34,0,0,0-1.9,5.9,8.459,8.459,0,0,0,1.9,5.93,8.194,8.194,0,0,0,10.877,0,8.425,8.425,0,0,0,1.9-5.909A8.449,8.449,0,0,0,539.862,98.161Zm-8.374,2a3.444,3.444,0,0,1,2.94-1.319q3.889,0,3.89,5.231t-3.911,5.221a3.423,3.423,0,0,1-2.93-1.314A8.247,8.247,0,0,1,531.488,100.157Z" transform="translate(-407 -74.031)"/>
</svg>
